<svg xmlns="http://www.w3.org/2000/svg" viewBox="0 0 96 96" role="img" aria-label="Mixed vegetables">
  <circle cx="48" cy="48" r="44" fill="#fff1c9"/>
  <ellipse cx="48" cy="64" rx="30" ry="14" fill="#9bd37d"/>
  <circle cx="32" cy="45" r="12" fill="#4faa5a"/>
  <circle cx="26" cy="53" r="10" fill="#68bf67"/>
  <circle cx="40" cy="54" r="10" fill="#59b95d"/>
  <path d="M55 27c12 1 20 10 21 22-13 2-25-6-30-18 3-3 6-4 9-4z" fill="#7fc86f"/>
  <path d="M60 31c3 6 7 11 14 16" fill="none" stroke="#3f9b53" stroke-width="3" stroke-linecap="round"/>
  <path d="M44 32c9 7 11 20 4 30-11-5-15-17-10-29 2-1 4-1 6-1z" fill="#71bd5f"/>
  <rect x="19" y="58" width="40" height="9" rx="4.5" fill="#f28b3d" transform="rotate(-14 39 62.5)"/>
  <path d="M25 57l-6 5 7 3z" fill="#59b95d"/>
  <circle cx="62" cy="58" r="9" fill="#f5d44e"/>
  <circle cx="69" cy="67" r="8" fill="#f2b44d"/>
  <circle cx="35" cy="64" r="7" fill="#e34f5f"/>
  <circle cx="33" cy="51" r="2.5" fill="#365137"/>
  <circle cx="66" cy="59" r="2.5" fill="#5b4624"/>
  <path d="M38 73c7 5 17 5 25 0" fill="none" stroke="#5b4624" stroke-width="4" stroke-linecap="round"/>
</svg>
