<svg xmlns="http://www.w3.org/2000/svg" viewBox="0 0 96 96" role="img" aria-label="Cute plum">
  <defs>
    <radialGradient id="plumBody" cx="36%" cy="28%" r="70%">
      <stop offset="0%" stop-color="#b879d8"/>
      <stop offset="58%" stop-color="#7c3aa6"/>
      <stop offset="100%" stop-color="#54206f"/>
    </radialGradient>
  </defs>
  <circle cx="48" cy="48" r="44" fill="#fff1c9"/>
  <path d="M49 15c3 9-3 16-12 18 3-8 1-15-5-20 7-2 13-1 17 2z" fill="#6fbf72"/>
  <path d="M48 17c6-8 16-9 26-4-4 9-13 15-26 4z" fill="#4eaa5b"/>
  <ellipse cx="47" cy="52" rx="27" ry="31" fill="url(#plumBody)"/>
  <path d="M36 28c-8 6-14 16-14 28 0 17 11 30 26 30 4 0 8-1 11-3-18 0-30-16-28-34 1-9 5-16 11-21z" fill="#42205f" opacity=".22"/>
  <ellipse cx="39" cy="38" rx="9" ry="13" fill="#d7a5ea" opacity=".42" transform="rotate(31 39 38)"/>
  <circle cx="38" cy="55" r="4" fill="#432448"/>
  <circle cx="58" cy="55" r="4" fill="#432448"/>
  <path d="M42 66c4 4 10 4 14 0" fill="none" stroke="#432448" stroke-width="4" stroke-linecap="round"/>
  <circle cx="35" cy="62" r="4" fill="#f2a4bf" opacity=".8"/>
  <circle cx="62" cy="62" r="4" fill="#f2a4bf" opacity=".8"/>
</svg>
