<svg xmlns="http://www.w3.org/2000/svg" viewBox="0 0 96 96" role="img" aria-label="Sesame seeds">
  <circle cx="48" cy="48" r="44" fill="#fff1c9"/>
  <ellipse cx="33" cy="34" rx="8" ry="13" fill="#f7dfaa" stroke="#c69d58" stroke-width="2" transform="rotate(-28 33 34)"/>
  <ellipse cx="52" cy="29" rx="8" ry="13" fill="#fff3ce" stroke="#c69d58" stroke-width="2" transform="rotate(18 52 29)"/>
  <ellipse cx="64" cy="45" rx="8" ry="13" fill="#f0d091" stroke="#b48645" stroke-width="2" transform="rotate(49 64 45)"/>
  <ellipse cx="42" cy="52" rx="8" ry="13" fill="#fff7db" stroke="#c69d58" stroke-width="2" transform="rotate(70 42 52)"/>
  <ellipse cx="58" cy="65" rx="8" ry="13" fill="#f5dda4" stroke="#b48645" stroke-width="2" transform="rotate(-18 58 65)"/>
  <ellipse cx="29" cy="65" rx="6" ry="10" fill="#fff5d5" stroke="#c69d58" stroke-width="2" transform="rotate(30 29 65)"/>
  <path d="M34 32c2 2 3 4 3 8" fill="none" stroke="#d4b372" stroke-width="2" stroke-linecap="round" opacity=".75"/>
  <path d="M52 25c-1 4-1 7 1 11" fill="none" stroke="#d4b372" stroke-width="2" stroke-linecap="round" opacity=".75"/>
  <path d="M61 42c4 2 6 5 7 9" fill="none" stroke="#c59a54" stroke-width="2" stroke-linecap="round" opacity=".75"/>
  <path d="M37 53c4 1 7 2 11 5" fill="none" stroke="#d4b372" stroke-width="2" stroke-linecap="round" opacity=".75"/>
  <path d="M57 60c2 4 3 7 2 11" fill="none" stroke="#c59a54" stroke-width="2" stroke-linecap="round" opacity=".75"/>
</svg>
