<svg xmlns="http://www.w3.org/2000/svg" viewBox="0 0 96 96" role="img" aria-label="Spinach leaves">
  <circle cx="48" cy="48" r="44" fill="#fff1c9"/>
  <path d="M47 76c-2-18 0-35 6-52" fill="none" stroke="#3a8f47" stroke-width="5" stroke-linecap="round"/>
  <path d="M49 33c-16-9-30-5-38 8 7 14 27 17 41 4 2-5 1-9-3-12z" fill="#68bd64"/>
  <path d="M48 44c-18 0-29 10-31 25 13 9 32 4 40-12-1-6-4-10-9-13z" fill="#4fab55"/>
  <path d="M53 31c8-15 23-20 36-14 2 16-10 31-29 29-5-4-8-9-7-15z" fill="#75c66f"/>
  <path d="M55 48c15-7 30-4 39 7-4 15-22 22-38 12-4-6-4-13-1-19z" fill="#5ab961"/>
  <path d="M23 42c10 1 20 3 29 3" fill="none" stroke="#3a8f47" stroke-width="3" stroke-linecap="round" opacity=".65"/>
  <path d="M29 66c9-6 18-10 28-11" fill="none" stroke="#367f41" stroke-width="3" stroke-linecap="round" opacity=".65"/>
  <path d="M61 42c6-7 13-13 22-19" fill="none" stroke="#3a8f47" stroke-width="3" stroke-linecap="round" opacity=".65"/>
  <path d="M59 61c9-3 18-4 27-3" fill="none" stroke="#367f41" stroke-width="3" stroke-linecap="round" opacity=".65"/>
  <circle cx="42" cy="57" r="3.5" fill="#365137"/>
  <circle cx="57" cy="57" r="3.5" fill="#365137"/>
  <path d="M44 67c4 3 8 3 12 0" fill="none" stroke="#365137" stroke-width="3.5" stroke-linecap="round"/>
</svg>
